<?xml version="1.0" encoding="UTF-8"?>
<svg version="1.1" xmlns="http://www.w3.org/2000/svg" width="35" height="42">
<path d="M0 0 C11.55 0 23.1 0 35 0 C35 13.86 35 27.72 35 42 C23.45 42 11.9 42 0 42 C0 28.14 0 14.28 0 0 Z " fill="#FCFCFA" transform="translate(0,0)"/>
<path d="M0 0 C2.89401051 1.29731506 5.16400267 2.37714667 7 5 C7.55177892 7.67931112 7.77564586 10.26287955 8 13 C9.98 13 11.96 13 14 13 C13.67 13.99 13.34 14.98 13 16 C12.01 16 11.02 16 10 16 C10 16.66 10 17.32 10 18 C11.65 18 13.3 18 15 18 C15 18.99 15 19.98 15 21 C14.01 21 13.02 21 12 21 C12.28875 21.91523438 12.5775 22.83046875 12.875 23.7734375 C13.24625 24.96195313 13.6175 26.15046875 14 27.375 C14.37125 28.55835937 14.7425 29.74171875 15.125 30.9609375 C16 34 16 34 16 36 C8.74 36 1.48 36 -6 36 C-5.34 33.36 -4.68 30.72 -4 28 C-4.99 28 -5.98 28 -7 28 C-6.505 26.515 -6.505 26.515 -6 25 C-4.68 25 -3.36 25 -2 25 C-1.34 27.97 -0.68 30.94 0 34 C1.98 33.01 3.96 32.02 6 31 C6.99 31.66 7.98 32.32 9 33 C8.979375 31.88625 8.95875 30.7725 8.9375 29.625 C9 26 9 26 10 24 C9.34 24 8.68 24 8 24 C7.938125 24.763125 7.87625 25.52625 7.8125 26.3125 C7 29 7 29 4.5625 30.8125 C2 32 2 32 0 32 C-0.13277344 31.38511719 -0.26554688 30.77023438 -0.40234375 30.13671875 C-0.57894531 29.32847656 -0.75554688 28.52023438 -0.9375 27.6875 C-1.11152344 26.88699219 -1.28554687 26.08648438 -1.46484375 25.26171875 C-1.99886159 22.854599 -1.99886159 22.854599 -3 20 C-2.5625 17.3125 -2.5625 17.3125 -2 15 C-3.32 14.67 -4.64 14.34 -6 14 C-4.02 13.67 -2.04 13.34 0 13 C0.33 9.7 0.66 6.4 1 3 C0.34 2.67 -0.32 2.34 -1 2 C-0.67 1.34 -0.34 0.68 0 0 Z " fill="#1915ED" transform="translate(12,3)"/>
<path d="M0 0 C1.97119141 -0.34057617 1.97119141 -0.34057617 4.3515625 -0.29296875 C5.20234375 -0.28330078 6.053125 -0.27363281 6.9296875 -0.26367188 C7.81914062 -0.23853516 8.70859375 -0.21339844 9.625 -0.1875 C10.97078125 -0.16719727 10.97078125 -0.16719727 12.34375 -0.14648438 C14.56309789 -0.11106925 16.78125188 -0.06168461 19 0 C19 1.65 19 3.3 19 5 C19.99 5 20.98 5 22 5 C21.625 7.9375 21.625 7.9375 21 11 C20.01 11.495 20.01 11.495 19 12 C18.67 18.93 18.34 25.86 18 33 C17.67 33 17.34 33 17 33 C17 29.04 17 25.08 17 21 C15.35 21 13.7 21 12 21 C12 20.34 12 19.68 12 19 C12.99 18.67 13.98 18.34 15 18 C15.33 17.34 15.66 16.68 16 16 C14.02 16 12.04 16 10 16 C9.84144531 15.39671875 9.68289062 14.7934375 9.51953125 14.171875 C8.00254606 8.97557215 6.79754274 5.9822563 2 3 C2.37125 3.845625 2.7425 4.69125 3.125 5.5625 C4.18331387 9.72016164 3.43280166 12.0199954 2 16 C1.01 15.67 0.02 15.34 -1 15 C-0.34 15 0.32 15 1 15 C-0.1858237 11.62496331 -1.27573689 9.35277269 -4 7 C-2.68 6.01 -1.36 5.02 0 4 C-0.66 3.67 -1.32 3.34 -2 3 C-1.34 2.01 -0.68 1.02 0 0 Z " fill="#FBFAF7" transform="translate(10,0)"/>
<path d="M0 0 C3.3 0 6.6 0 10 0 C10 4 10 4 9 6 C8.01 6.495 8.01 6.495 7 7 C7.66 7.5775 8.32 8.155 9 8.75 C11 11 11 11 11 15 C10.195625 15.28875 9.39125 15.5775 8.5625 15.875 C5.8673532 16.73262568 5.8673532 16.73262568 5 19 C5 18.01 5 17.02 5 16 C4.54625 16.495 4.0925 16.99 3.625 17.5 C2 19 2 19 0 19 C0 12.73 0 6.46 0 0 Z " fill="#FCFCFC" transform="translate(0,0)"/>
<path d="M0 0 C0.91007813 0.10183594 1.82015625 0.20367188 2.7578125 0.30859375 C3.45648438 0.39238281 4.15515625 0.47617187 4.875 0.5625 C4.875 1.2225 4.875 1.8825 4.875 2.5625 C3.225 2.5625 1.575 2.5625 -0.125 2.5625 C0.205 3.2225 0.535 3.8825 0.875 4.5625 C1.865 4.8925 2.855 5.2225 3.875 5.5625 C3.545 6.2225 3.215 6.8825 2.875 7.5625 C2.875 8.2225 2.875 8.8825 2.875 9.5625 C2.545 10.5525 2.215 11.5425 1.875 12.5625 C3.195 12.5625 4.515 12.5625 5.875 12.5625 C6.205 11.9025 6.535 11.2425 6.875 10.5625 C6.6875 12.875 6.6875 12.875 5.875 15.5625 C1.84051724 18.5625 1.84051724 18.5625 -1.125 18.5625 C-1.25777344 17.94761719 -1.39054688 17.33273438 -1.52734375 16.69921875 C-1.70394531 15.89097656 -1.88054688 15.08273438 -2.0625 14.25 C-2.23652344 13.44949219 -2.41054687 12.64898437 -2.58984375 11.82421875 C-3.12386159 9.417099 -3.12386159 9.417099 -4.125 6.5625 C-3.6875 3.875 -3.6875 3.875 -3.125 1.5625 C-4.445 1.2325 -5.765 0.9025 -7.125 0.5625 C-4.50184968 -0.74907516 -2.89466564 -0.33399988 0 0 Z " fill="#1716DC" transform="translate(13.125,16.4375)"/>
<path d="M0 0 C2.8203125 -0.29296875 2.8203125 -0.29296875 6.125 -0.1875 C7.76855469 -0.14689453 7.76855469 -0.14689453 9.4453125 -0.10546875 C10.28835937 -0.07066406 11.13140625 -0.03585937 12 0 C11.01 0.66 10.02 1.32 9 2 C9.556875 3.36125 9.556875 3.36125 10.125 4.75 C11 8 11 8 10.125 10.375 C9.75375 10.91125 9.3825 11.4475 9 12 C8.773125 11.2575 8.54625 10.515 8.3125 9.75 C6.75592468 6.48860409 4.91481146 5.07105025 2 3 C2.37125 3.845625 2.7425 4.69125 3.125 5.5625 C4.18331387 9.72016164 3.43280166 12.0199954 2 16 C1.01 15.67 0.02 15.34 -1 15 C-0.34 15 0.32 15 1 15 C-0.1858237 11.62496331 -1.27573689 9.35277269 -4 7 C-2.68 6.01 -1.36 5.02 0 4 C-0.66 3.67 -1.32 3.34 -2 3 C-1.34 2.01 -0.68 1.02 0 0 Z " fill="#F3F4F5" transform="translate(10,0)"/>
<path d="M0 0 C1.32 0 2.64 0 4 0 C3.95875 1.093125 3.9175 2.18625 3.875 3.3125 C3.67925334 7.08892229 3.67925334 7.08892229 6 10 C6.07905064 12.33199388 6.08798769 14.66832622 6 17 C6.78375 16.505 7.5675 16.01 8.375 15.5 C11 14 11 14 13 14 C13.33 12.35 13.66 10.7 14 9 C14.66 9 15.32 9 16 9 C15.67 11.97 15.34 14.94 15 18 C13.68 17.67 12.36 17.34 11 17 C8.27018168 18.35400645 8.27018168 18.35400645 6 20 C3.5705484 16.3558226 3.83820425 14.28758728 4 10 C2.68 9.67 1.36 9.34 0 9 C0.185625 8.443125 0.37125 7.88625 0.5625 7.3125 C1.07551165 4.600867 0.6640724 2.65628961 0 0 Z " fill="#ACB0E4" transform="translate(6,18)"/>
<path d="M0 0 C0.66 0 1.32 0 2 0 C2 0.66 2 1.32 2 2 C2.99 2 3.98 2 5 2 C4.625 4.9375 4.625 4.9375 4 8 C3.01 8.495 3.01 8.495 2 9 C1.67 15.93 1.34 22.86 1 30 C0.67 30 0.34 30 0 30 C0 26.04 0 22.08 0 18 C-0.66 17.67 -1.32 17.34 -2 17 C-1.34 17 -0.68 17 0 17 C-0.309375 15.948125 -0.61875 14.89625 -0.9375 13.8125 C-1.75685094 10.87247604 -2.45483931 7.99838377 -3 5 C-2.34 5 -1.68 5 -1 5 C-0.67 3.35 -0.34 1.7 0 0 Z " fill="#CACE8B" transform="translate(27,3)"/>
<path d="M0 0 C5.2295082 2.3442623 5.2295082 2.3442623 7 5 C7.2529766 7.71815286 7.1347974 10.25911949 7 13 C4.69 12.67 2.38 12.34 0 12 C0.33 9.03 0.66 6.06 1 3 C0.34 2.67 -0.32 2.34 -1 2 C-0.67 1.34 -0.34 0.68 0 0 Z " fill="#2928DA" transform="translate(12,3)"/>
<path d="M0 0 C1.65 0.33 3.3 0.66 5 1 C4.125 6.75 4.125 6.75 3 9 C4.65 9 6.3 9 8 9 C8 9.33 8 9.66 8 10 C6.52093108 10.02689216 5.04172517 10.04634621 3.5625 10.0625 C2.32693359 10.07990234 2.32693359 10.07990234 1.06640625 10.09765625 C-1 10 -1 10 -2 9 C-2.26293056 4.96839809 -2.29404844 3.44107266 0 0 Z " fill="#FAFCF1" transform="translate(3,30)"/>
<path d="M0 0 C0.91007813 0.10183594 1.82015625 0.20367188 2.7578125 0.30859375 C3.45648438 0.39238281 4.15515625 0.47617187 4.875 0.5625 C4.875 1.2225 4.875 1.8825 4.875 2.5625 C3.225 2.5625 1.575 2.5625 -0.125 2.5625 C0.205 3.2225 0.535 3.8825 0.875 4.5625 C1.865 4.8925 2.855 5.2225 3.875 5.5625 C3.545 6.2225 3.215 6.8825 2.875 7.5625 C2.545 8.5525 2.215 9.5425 1.875 10.5625 C-0.125 9.5625 -0.125 9.5625 -1.125 6.5625 C-2.115 7.5525 -3.105 8.5425 -4.125 9.5625 C-3.795 6.9225 -3.465 4.2825 -3.125 1.5625 C-4.445 1.2325 -5.765 0.9025 -7.125 0.5625 C-4.50184968 -0.74907516 -2.89466564 -0.33399988 0 0 Z " fill="#1B13E1" transform="translate(13.125,16.4375)"/>
<path d="M0 0 C3 1 3 1 4.3125 3.625 C5.14058823 7.69016041 4.38950029 10.14027697 3 14 C2.01 13.67 1.02 13.34 0 13 C0.66 13 1.32 13 2 13 C0.8141763 9.62496331 -0.27573689 7.35277269 -3 5 C-1.68 4.01 -0.36 3.02 1 2 C0.34 1.67 -0.32 1.34 -1 1 C-0.67 0.67 -0.34 0.34 0 0 Z " fill="#E4E3F1" transform="translate(9,2)"/>
<path d="M0 0 C1.32 0 2.64 0 4 0 C4.19491452 1.45736087 4.38069358 2.91594593 4.5625 4.375 C4.66691406 5.18710937 4.77132813 5.99921875 4.87890625 6.8359375 C5 9 5 9 4 11 C2.68 11 1.36 11 0 11 C0.66 8.36 1.32 5.72 2 3 C1.01 3 0.02 3 -1 3 C-0.67 2.01 -0.34 1.02 0 0 Z " fill="#131291" transform="translate(6,28)"/>
<path d="M0 0 C0.66 0.66 1.32 1.32 2 2 C1.67 2.66 1.34 3.32 1 4 C4.3 3.67 7.6 3.34 11 3 C11 3.66 11 4.32 11 5 C5.06 5 -0.88 5 -7 5 C-7 4.34 -7 3.68 -7 3 C-6.401875 2.87625 -5.80375 2.7525 -5.1875 2.625 C-2.73768652 2.04524015 -2.73768652 2.04524015 0 0 Z " fill="#4641E7" transform="translate(17,34)"/>
<path d="M0 0 C1.32 0 2.64 0 4 0 C4 2.31 4 4.62 4 7 C4.33 7 4.66 7 5 7 C5 8.98 5 10.96 5 13 C4.67 12.01 4.34 11.02 4 10 C1.98491642 9.26676204 1.98491642 9.26676204 0 9 C0.185625 8.443125 0.37125 7.88625 0.5625 7.3125 C1.07551165 4.600867 0.6640724 2.65628961 0 0 Z " fill="#CACDEF" transform="translate(6,18)"/>
<path d="M0 0 C0.33 0 0.66 0 1 0 C0.67 2.64 0.34 5.28 0 8 C-0.66 8 -1.32 8 -2 8 C-2 8.66 -2 9.32 -2 10 C-3.32 9.67 -4.64 9.34 -6 9 C-6 8.34 -6 7.68 -6 7 C-4.35 7 -2.7 7 -1 7 C-1 6.34 -1 5.68 -1 5 C-2.98 5 -4.96 5 -7 5 C-7 4.34 -7 3.68 -7 3 C-5.02 3 -3.04 3 -1 3 C-0.67 2.01 -0.34 1.02 0 0 Z " fill="#6F6CC4" transform="translate(19,12)"/>
<path d="M0 0 C1.485 0.99 1.485 0.99 3 2 C3.99 1.67 4.98 1.34 6 1 C6 2.98 6 4.96 6 7 C3.69 6.67 1.38 6.34 -1 6 C-0.67 4.02 -0.34 2.04 0 0 Z " fill="#1B16F0" transform="translate(13,9)"/>
<path d="M0 0 C1.98 0 3.96 0 6 0 C5.67 0.99 5.34 1.98 5 3 C4.01 3 3.02 3 2 3 C1.67 3.66 1.34 4.32 1 5 C-1.0625 5.625 -1.0625 5.625 -3 6 C-3 5.34 -3 4.68 -3 4 C-2.34 4 -1.68 4 -1 4 C-0.67 2.68 -0.34 1.36 0 0 Z " fill="#4440DE" transform="translate(20,16)"/>
<path d="M0 0 C1.2077558 3.62326739 0.54311128 4.64146369 -1 8 C0.65 8 2.3 8 4 8 C4 8.33 4 8.66 4 9 C-1.75 9.125 -1.75 9.125 -4 8 C-4 6.35 -4 4.7 -4 3 C-3.01 3.495 -3.01 3.495 -2 4 C-2 3.01 -2 2.02 -2 1 C-1.34 0.67 -0.68 0.34 0 0 Z " fill="#E0E4EE" transform="translate(7,31)"/>
<path d="M0 0 C0.99 0 1.98 0 3 0 C3 3.63 3 7.26 3 11 C0.43383368 7.15075052 0.44902324 4.5650696 0 0 Z " fill="#E2E4F5" transform="translate(24,24)"/>
<path d="M0 0 C1.65 0 3.3 0 5 0 C5 0.99 5 1.98 5 3 C4.01 3 3.02 3 2 3 C1.67 4.98 1.34 6.96 1 9 C0.34 8.67 -0.32 8.34 -1 8 C-0.67 7.34 -0.34 6.68 0 6 C-0.66 5.67 -1.32 5.34 -2 5 C-1.01 5 -0.02 5 1 5 C0.67 3.35 0.34 1.7 0 0 Z " fill="#3633EB" transform="translate(22,21)"/>
<path d="M0 0 C0.91007813 0.10183594 1.82015625 0.20367188 2.7578125 0.30859375 C3.45648438 0.39238281 4.15515625 0.47617187 4.875 0.5625 C4.875 1.2225 4.875 1.8825 4.875 2.5625 C-3.69642857 2.84821429 -3.69642857 2.84821429 -7.125 0.5625 C-4.50184968 -0.74907516 -2.89466564 -0.33399988 0 0 Z " fill="#1B15F2" transform="translate(13.125,16.4375)"/>
<path d="M0 0 C0.66 0 1.32 0 2 0 C1.67 2.97 1.34 5.94 1 9 C-1.475 8.01 -1.475 8.01 -4 7 C-3.67 6.34 -3.34 5.68 -3 5 C-2.34 5 -1.68 5 -1 5 C-0.67 3.35 -0.34 1.7 0 0 Z " fill="#C0C4EC" transform="translate(20,27)"/>
<path d="M0 0 C0.33 0.99 0.66 1.98 1 3 C1.66 3 2.32 3 3 3 C3 3.66 3 4.32 3 5 C3.66 5.33 4.32 5.66 5 6 C2.03 6 -0.94 6 -4 6 C-4 5.34 -4 4.68 -4 4 C-2.68 4 -1.36 4 0 4 C0 2.68 0 1.36 0 0 Z " fill="#1411F5" transform="translate(22,32)"/>
<path d="M0 0 C0.33 0.99 0.66 1.98 1 3 C1.99 3.33 2.98 3.66 4 4 C4 6.31 4 8.62 4 11 C3.01 10.67 2.02 10.34 1 10 C1.66 10 2.32 10 3 10 C1.8141763 6.62496331 0.72426311 4.35277269 -2 2 C-1.34 1.34 -0.68 0.68 0 0 Z " fill="#F2EFDD" transform="translate(8,5)"/>
<path d="M0 0 C1.32 0 2.64 0 4 0 C3.67 1.98 3.34 3.96 3 6 C2.01 6 1.02 6 0 6 C0 4.02 0 2.04 0 0 Z " fill="#E6E6BA" transform="translate(28,5)"/>
<path d="M0 0 C1.32 0 2.64 0 4 0 C3.67 1.98 3.34 3.96 3 6 C2.67 5.01 2.34 4.02 2 3 C1.01 3 0.02 3 -1 3 C-0.67 2.01 -0.34 1.02 0 0 Z " fill="#3D38CA" transform="translate(6,28)"/>
</svg>
